<?xml version="1.0" encoding="UTF-8"?>
<svg width="20px" height="30px" viewBox="0 0 20 30" version="1.1" xmlns="http://www.w3.org/2000/svg" xmlns:xlink="http://www.w3.org/1999/xlink">
    <!-- Generator: Sketch 49.3 (51167) - http://www.bohemiancoding.com/sketch -->
    <title>Location</title>
    <desc>Created with Sketch.</desc>
    <defs></defs>
    <g id="Web" stroke="none" stroke-width="1" fill="none" fill-rule="evenodd">
        <g id="Contact" transform="translate(-100.000000, -252.000000)" fill="#000000" fill-rule="nonzero">
            <g id="FIND-ME" transform="translate(100.000000, 252.000000)">
                <g id="Location">
                    <path d="M10,0 C4.5,0 0,4.42593694 0,9.88697204 C0,21.522903 9.14285714,29.4824509 9.53571429,29.8393813 C9.78571429,30.0535396 10.2142857,30.0535396 10.4642857,29.8393813 C10.8571429,29.4824509 20,21.48721 20,9.88697204 C20,4.42593694 15.5,0 10,0 Z M10,28.3045806 C8.14285714,26.5199286 1.42857143,19.3813206 1.42857143,9.88697204 C1.42857143,5.21118382 5.28571429,1.42772159 10,1.42772159 C14.7142857,1.42772159 18.5714286,5.21118382 18.5714286,9.88697204 C18.5714286,19.3813206 11.8571429,26.5199286 10,28.3045806 Z M10,4.28316478 C6.85714286,4.28316478 4.28571429,6.85306365 4.28571429,9.99405116 C4.28571429,13.1350387 6.85714286,15.7049375 10,15.7049375 C13.1428571,15.7049375 15.7142857,13.1350387 15.7142857,9.99405116 C15.7142857,6.85306365 13.1428571,4.28316478 10,4.28316478 Z M10,14.2772159 C7.64285714,14.2772159 5.71428571,12.3497918 5.71428571,9.99405116 C5.71428571,7.63831053 7.64285714,5.71088638 10,5.71088638 C12.3571429,5.71088638 14.2857143,7.63831053 14.2857143,9.99405116 C14.2857143,12.3497918 12.3571429,14.2772159 10,14.2772159 Z" id="Location_Pin"></path>
                </g>
            </g>
        </g>
    </g>
</svg>