<?xml version="1.0" encoding="UTF-8"?>
<svg width="18px" height="31px" viewBox="0 0 18 31" version="1.1" xmlns="http://www.w3.org/2000/svg" xmlns:xlink="http://www.w3.org/1999/xlink">
    <!-- Generator: Sketch 49.3 (51167) - http://www.bohemiancoding.com/sketch -->
    <title>Mobile</title>
    <desc>Created with Sketch.</desc>
    <defs></defs>
    <g id="Web" stroke="none" stroke-width="1" fill="none" fill-rule="evenodd">
        <g id="Contact" transform="translate(-100.000000, -445.000000)" fill="#000000" fill-rule="nonzero">
            <g id="CALL-ME" transform="translate(100.000000, 445.000000)">
                <g id="Mobile">
                    <g id="svg16077">
                        <g id="layer1" transform="translate(0.000000, 0.152333)">
                            <path d="M0.496301254,0.0388100874 C0.222212999,0.0388376012 2.74211554e-05,0.261773806 8.81608127e-16,0.536788035 L0,29.419509 C2.74211554e-05,29.6945232 0.222212999,29.9174594 0.496301254,29.9174869 L17.3705439,29.9174869 C17.6446321,29.9174594 17.8668177,29.6945232 17.8668451,29.419509 L17.8668451,0.536788035 C17.8668177,0.261773806 17.6446321,0.0388376012 17.3705439,0.0388100874 L0.496301254,0.0388100874 Z M0.992602508,1.03476598 L16.8742426,1.03476598 L16.8742426,28.921531 L0.992602508,28.921531 L0.992602508,1.03476598 Z M6.34916606,2.03072188 C6.07506645,2.04468823 5.86414866,2.27896252 5.87806799,2.55398814 C5.89198731,2.82901376 6.12547279,3.04064412 6.3995724,3.02667777 L11.4672727,3.02667777 C11.6462588,3.02922068 11.812744,2.9348667 11.9029766,2.77974652 C11.9932093,2.62462634 11.9932093,2.43277331 11.9029766,2.27765313 C11.812744,2.12253295 11.6462588,2.02817897 11.4672727,2.03072188 L6.3995724,2.03072188 C6.38278113,2.02986528 6.36595733,2.02986528 6.34916606,2.03072188 Z M2.48150627,4.02263367 C2.20741801,4.02266116 1.98523242,4.24559738 1.98520502,4.52061161 L1.98520502,24.4397295 C1.98523242,24.7147437 2.20741801,24.93768 2.48150627,24.9377075 L4.36590059,24.9377075 L13.5009446,24.9377075 L15.3853389,24.9377075 C15.6594271,24.93768 15.8816127,24.7147437 15.8816401,24.4397295 L15.8816401,4.52061161 C15.8816127,4.24559738 15.6594271,4.02266116 15.3853389,4.02263367 L13.5009446,4.02263367 L4.36590059,4.02263367 L2.48150627,4.02263367 Z M2.97780752,5.01858956 L4.36590059,5.01858956 L13.5009446,5.01858956 L14.8890376,5.01858956 L14.8890376,23.9417516 L13.5009446,23.9417516 L4.36590059,23.9417516 L2.97780752,23.9417516 L2.97780752,5.01858956 Z M8.93342257,25.9336634 C8.39108342,25.9336634 7.9408151,26.385429 7.94082006,26.9296193 C7.94070691,27.4739091 8.39100898,27.9256747 8.93342257,27.9255751 C9.47584312,27.9256747 9.92613824,27.4739091 9.92602508,26.9296193 C9.92603004,26.385429 9.47576966,25.9336634 8.93342257,25.9336634 Z" id="rect7701-3"></path>
                        </g>
                    </g>
                </g>
            </g>
        </g>
    </g>
</svg>