<?xml version="1.0" encoding="UTF-8"?>
<svg width="40px" height="48px" viewBox="0 0 40 48" version="1.1" xmlns="http://www.w3.org/2000/svg" xmlns:xlink="http://www.w3.org/1999/xlink">
    <!-- Generator: Sketch 49.3 (51167) - http://www.bohemiancoding.com/sketch -->
    <title>Mug</title>
    <desc>Created with Sketch.</desc>
    <defs></defs>
    <g id="Web" stroke="none" stroke-width="1" fill="none" fill-rule="evenodd">
        <g id="Contact" transform="translate(-1146.000000, -159.000000)">
            <g id="Message" transform="translate(668.000000, 160.000000)">
                <g id="Mug" transform="translate(479.000000, 0.000000)">
                    <g id="Group">
                        <g id="Icons" transform="translate(0.084969, 0.092659)">
                            <g id="XMLID_993_" transform="translate(-0.000000, 0.000000)">
                                <ellipse id="XMLID_100_" fill="#45413C" fill-rule="nonzero" opacity="0.15" cx="17.1448463" cy="44.4177297" rx="14.3365034" ry="1.58137849"></ellipse>
                                <g id="XMLID_65_" transform="translate(-0.000000, 0.000000)">
                                    <path d="M8.83956159,9.82507525 C9.23505133,9.13322216 9.53166864,8.34253292 9.53166864,7.45300752 C9.53166864,4.88326747 7.45534747,2.8077082 4.88466411,2.8077082 C2.31398075,2.8077082 0.138787139,4.88326747 0.138787139,7.55184367 C0.138787139,10.2204199 2.21510831,12.197143 4.78579167,12.197143 L5.18128142,12.197143 C5.18128142,13.5808492 6.36775066,14.766883 7.75196478,14.766883 C9.1361789,14.766883 10.3226481,13.5808492 10.3226481,12.197143 C10.3226481,11.1099453 9.72941352,10.2204199 8.83956159,9.82507525 Z" id="XMLID_86_" stroke="#45413C" fill="#FFFFFF" fill-rule="nonzero" stroke-linecap="round" stroke-linejoin="round"></path>
                                    <ellipse id="XMLID_85_" stroke="#45413C" fill="#FFFFFF" fill-rule="nonzero" stroke-linecap="round" stroke-linejoin="round" cx="14.5741629" cy="2.8077082" rx="2.57068336" ry="2.56974005"></ellipse>
                                    <g id="XMLID_66_" transform="translate(0.712064, 18.066869)">
                                        <g id="XMLID_81_" transform="translate(27.960942, 5.101088)">
                                            <path d="M4.09368461,11.0696494 C7.15873016,11.0696494 9.63054108,8.59874554 9.63054108,5.53482472 C9.63054108,2.47090389 7.15873016,0 4.09368461,0 L2.01736344,0 L2.01736344,3.36042929 L4.09368461,3.36042929 C5.28015386,3.36042929 6.17000579,4.34879085 6.17000579,5.43598856 C6.17000579,6.62202243 5.18128142,7.51154783 4.09368461,7.51154783 L0.237659576,7.51154783 L0.237659576,10.8719771 L4.09368461,10.8719771 L4.09368461,11.0696494 Z" id="XMLID_84_" fill="#E5F8FF" fill-rule="nonzero"></path>
                                            <path d="M3.30270512,1.7790508 C6.36775066,1.7790508 8.83956159,4.24995469 8.83956159,7.31387552 C8.83956159,7.90689245 8.74068915,8.40107323 8.64181671,8.89525401 C9.33392377,8.00572861 9.72941352,6.81969474 9.72941352,5.63366087 C9.72941352,2.56974005 7.2576026,0.0988361556 4.19255705,0.0988361556 L2.11623588,0.0988361556 L2.11623588,1.7790508 L3.30270512,1.7790508 Z" id="XMLID_83_" fill="#FFFFFF" fill-rule="nonzero"></path>
                                            <path d="M4.09368461,11.0696494 C7.15873016,11.0696494 9.63054108,8.59874554 9.63054108,5.53482472 C9.63054108,2.47090389 7.15873016,0 4.09368461,0 L2.01736344,0 L2.01736344,3.36042929 L4.09368461,3.36042929 C5.28015386,3.36042929 6.17000579,4.34879085 6.17000579,5.43598856 C6.17000579,6.62202243 5.18128142,7.51154783 4.09368461,7.51154783 L0.237659576,7.51154783 L0.237659576,10.8719771 L4.09368461,10.8719771 L4.09368461,11.0696494 Z" id="XMLID_82_" stroke="#45413C" stroke-linecap="round" stroke-linejoin="round"></path>
                                        </g>
                                        <g id="XMLID_67_" transform="translate(-0.000000, 0.000000)">
                                            <g id="XMLID_76_" transform="translate(-0.000000, 0.000000)">
                                                <path d="M0.217702225,11.1300932 C0.217702225,19.7288387 7.33651768,26.7462058 16.0372921,26.4496973 C24.3425768,26.1531889 30.7692852,19.1358218 30.7692852,10.8335847 L30.7692852,1.83949457 L0.217702225,1.83949457 L0.217702225,11.1300932 Z" id="XMLID_80_" fill="#FFFFFF" fill-rule="nonzero"></path>
                                                <path d="M15.5429299,20.9148726 C9.41283886,20.9148726 3.97485483,17.9497879 0.415447099,13.5021609 C1.60191634,21.0137088 8.22636961,26.6473696 16.0372921,26.3508612 C23.3538525,26.0543527 29.2861987,20.519528 30.4726679,13.5021609 C27.1110051,18.0486241 21.673021,20.9148726 15.5429299,20.9148726 Z" id="XMLID_79_" fill="#E8F4FA" fill-rule="nonzero"></path>
                                                <path d="M0.217702225,11.1300932 C0.217702225,19.7288387 7.33651768,26.7462058 16.0372921,26.4496973 C24.3425768,26.1531889 30.7692852,19.1358218 30.7692852,10.8335847 L30.7692852,1.83949457 L0.217702225,1.83949457 L0.217702225,11.1300932 Z" id="XMLID_78_" stroke="#45413C" stroke-linecap="round" stroke-linejoin="round"></path>
                                                <ellipse id="XMLID_77_" stroke="#45413C" fill="#E8F4FA" fill-rule="nonzero" stroke-linecap="round" stroke-linejoin="round" cx="15.5429299" cy="1.74065841" rx="15.3252277" ry="1.68021465"></ellipse>
                                            </g>
                                        </g>
                                    </g>
                                </g>
                            </g>
                        </g>
                    </g>
                </g>
            </g>
        </g>
    </g>
</svg>